<?xml version="1.0" encoding="utf-8"?>
<!-- Generator: Adobe Illustrator 20.1.0, SVG Export Plug-In . SVG Version: 6.00 Build 0)  -->
<svg version="1.1" id="Layer_1" xmlns="http://www.w3.org/2000/svg" xmlns:xlink="http://www.w3.org/1999/xlink" x="0px" y="0px"
	 viewBox="0 0 512 512" style="enable-background:new 0 0 512 512;" xml:space="preserve">
<style type="text/css">
	.st0{fill:#F4F4F4;}
	.st1{fill:#16425B;}
	.st2{fill:#EF476F;}
	.st3{fill:#247BA0;}
</style>
<path id="WhiteCircle" class="st0" d="M250.87,6.74c-33.69,0-66.38,6.6-97.17,19.63c-29.73,12.57-56.42,30.57-79.34,53.49
	c-22.92,22.92-40.91,49.61-53.49,79.34C7.84,189.98,1.24,222.68,1.24,256.37s6.6,66.38,19.63,97.17
	c12.57,29.73,30.57,56.42,53.49,79.34c22.92,22.92,49.61,40.91,79.34,53.49C184.48,499.4,217.18,506,250.87,506
	s66.38-6.6,97.17-19.63c29.73-12.57,56.42-30.57,79.34-53.49c22.92-22.92,40.91-49.61,53.49-79.34
	c13.02-30.79,19.63-63.48,19.63-97.17s-6.6-66.38-19.63-97.17c-12.57-29.73-30.57-56.42-53.49-79.34
	c-22.92-22.92-49.61-40.91-79.34-53.49C317.25,13.34,284.56,6.74,250.87,6.74L250.87,6.74z"/>
<path id="blueInnerCircle" class="st1" d="M250.87,28.98c125.58,0,227.39,101.81,227.39,227.39S376.45,483.76,250.87,483.76
	S23.48,381.95,23.48,256.37S125.28,28.98,250.87,28.98"/>
<path id="ballBounce_x5F_Final" class="st2" d="M355.98,209.69c-21.45,0-38.91-17.46-38.91-38.92c0-21.45,17.46-38.91,38.91-38.91
	c21.46,0,38.92,17.46,38.92,38.91C394.89,192.23,377.44,209.69,355.98,209.69L355.98,209.69z"/>
<path id="ballBounce_x5F_05" class="st2" d="M280.55,225.34c-5.06-5.1-5.01-13.32,0.05-18.38c5.1-5.02,13.32-5.02,18.38,0.09
	c5.02,5.1,4.97,13.28-0.09,18.33c-2.51,2.51-5.84,3.76-9.12,3.76C286.39,229.15,283.05,227.9,280.55,225.34L280.55,225.34z"/>
<path id="ballBounce_x5F_04" class="st2" d="M241.63,264.26c-5.06-5.1-5.01-13.32,0.05-18.38c5.1-5.02,13.32-5.02,18.38,0.09
	c5.02,5.1,4.97,13.28-0.09,18.33c-2.51,2.51-5.84,3.76-9.12,3.76C247.47,268.06,244.14,266.81,241.63,264.26L241.63,264.26z"/>
<path id="ballBounce_x5F_03" class="st2" d="M189.75,186.43c-5.06-5.1-5.01-13.32,0.05-18.38c5.1-5.02,13.32-5.02,18.38,0.09
	c5.02,5.1,4.97,13.28-0.09,18.33c-2.51,2.51-5.84,3.76-9.12,3.76C195.59,190.24,192.26,188.99,189.75,186.43L189.75,186.43z"/>
<path id="ballBounce_x5F_02" class="st2" d="M215.69,225.34c-5.06-5.1-5.01-13.32,0.05-18.38c5.1-5.02,13.32-5.02,18.38,0.09
	c5.02,5.1,4.97,13.28-0.09,18.33c-2.51,2.51-5.84,3.76-9.12,3.76C221.53,229.15,218.2,227.9,215.69,225.34L215.69,225.34z"/>
<path id="ballBounce_x5F_01" class="st2" d="M150.84,147.52c-5.06-5.1-5.01-13.32,0.05-18.38c5.1-5.02,13.32-5.02,18.38,0.09
	c5.02,5.1,4.97,13.28-0.09,18.33c-2.51,2.51-5.84,3.76-9.12,3.76C156.68,151.32,153.34,150.07,150.84,147.52L150.84,147.52z"/>
<path id="keyframe_x5F_Circle_x5F_Pink" class="st0" d="M146.25,380.87h-5.69c-13.37,0-24.19-10.81-24.19-24.19v-5.69
	c0-13.37,10.81-24.19,24.19-24.19h5.69c13.37,0,24.19,10.81,24.19,24.19v5.69C170.44,370.06,159.63,380.87,146.25,380.87z"/>
<path id="keyframe_x5F_Circle_x5F_White" class="st3" d="M140.56,376.6c-10.98,0-19.92-8.94-19.92-19.92v-5.69
	c0-10.98,8.94-19.92,19.92-19.92h5.69c10.98,0,19.92,8.94,19.92,19.92v5.69c0,10.98-8.94,19.92-19.92,19.92H140.56z"/>
<path id="keyframe_x5F_EZ_x5F_Pink" class="st0" d="M270.32,393.68h-37.85c-3.13,0-6.26-1.71-7.68-4.27
	c-1.42-2.28-1.14-5.12,0.28-7.4l16.79-27.32c0.28-0.57,0.28-1.14,0-1.71l-16.79-27.32c-1.42-2.28-1.42-5.12-0.28-7.4
	c1.42-2.56,4.27-4.27,7.68-4.27h37.85c3.13,0,6.26,1.71,7.68,4.27c1.42,2.28,1.14,5.12-0.28,7.4l-16.79,27.32
	c-0.28,0.57-0.28,1.14,0,1.71l16.79,27.32c1.42,2.28,1.42,5.12,0.28,7.4C276.58,391.97,273.45,393.68,270.32,393.68z"/>
<path id="keyframe_x5F_EZ_x5F_White" class="st3" d="M232.48,389.41c-1.6,0-3.3-0.89-3.95-2.07c-0.04-0.06-0.07-0.13-0.11-0.19
	c-0.56-0.89-0.22-2.07,0.28-2.87l16.81-27.35c0.07-0.11,0.13-0.21,0.18-0.33c0.89-1.78,0.89-3.74,0-5.53
	c-0.06-0.11-0.12-0.22-0.18-0.33l-16.79-27.32c-0.58-0.92-0.62-2.15-0.14-3.17c0.74-1.25,2.19-1.99,3.91-1.99h37.85
	c1.6,0,3.3,0.89,3.95,2.07c0.04,0.06,0.07,0.13,0.11,0.19c0.56,0.89,0.22,2.07-0.28,2.88l-16.81,27.35
	c-0.07,0.11-0.13,0.21-0.18,0.33c-0.89,1.78-0.89,3.74,0,5.53c0.06,0.11,0.12,0.22,0.18,0.33l16.79,27.32
	c0.58,0.92,0.62,2.14,0.15,3.17c-0.69,1.14-2.35,2-3.91,2H232.48z"/>
<path id="keyframe_x5F_Pink" class="st0" d="M355.98,384.57c-2.28,0-4.27-0.85-5.98-2.56l-22.2-22.2c-3.41-3.41-3.41-8.82,0-11.95
	l22.2-22.2c3.41-3.41,8.82-3.41,11.95,0l22.2,22.2c3.41,3.41,3.41,8.82,0,11.95l-22.2,22.2
	C360.25,383.72,358.26,384.57,355.98,384.57z"/>
<path id="keyframe_x5F_White" class="st3" d="M355.98,380.3c-1.14,0-2.05-0.4-2.96-1.31l-22.2-22.2c-0.87-0.87-1.34-1.99-1.31-3.15
	c0.02-1.03,0.44-1.96,1.18-2.64c0.05-0.04,0.09-0.09,0.13-0.13l22.2-22.2c0.85-0.84,1.93-1.31,3.07-1.31c1.06,0,2.03,0.42,2.72,1.18
	c0.04,0.05,0.08,0.09,0.13,0.13l22.2,22.2c0.87,0.87,1.34,1.99,1.31,3.15c-0.02,1.03-0.44,1.96-1.18,2.64
	c-0.05,0.04-0.09,0.09-0.13,0.13l-22.2,22.2C358.03,379.9,357.12,380.3,355.98,380.3z"/>
</svg>
