<svg xmlns="http://www.w3.org/2000/svg" xmlns:xlink="http://www.w3.org/1999/xlink" xmlns:sketch="http://www.bohemiancoding.com/sketch/ns" viewBox="0 0 22 22" version="1.1" x="0px" y="0px"><title>sequence</title><desc>Created with Sketch.</desc><g stroke="none" stroke-width="1" fill="none" fill-rule="evenodd" sketch:type="MSPage"><g sketch:type="MSArtboardGroup" fill="#000000"><path d="M17.9997544,12.5 C16.3458862,12.5 15,11.1541138 15,9.4997544 C15,7.84588621 16.3458862,6.5 17.9997544,6.5 C19.6541138,6.5 21,7.84588621 21,9.4997544 C21,11.1541138 19.6541138,12.5 17.9997544,12.5 L17.9997544,12.5 Z M12.2908786,13.7066308 C11.9005312,13.3131635 11.9043088,12.6798385 12.2946562,12.289519 C12.6881515,11.9023472 13.3215216,11.9023472 13.7118689,12.296444 C14.0990683,12.6899113 14.0952908,13.3200885 13.7049434,13.7097785 C13.5116585,13.9030497 13.2547847,14 13.0016886,14 C12.7410372,14 12.4841635,13.9036792 12.2908786,13.7066308 L12.2908786,13.7066308 Z M9.2908786,16.7066308 C8.90053124,16.3131635 8.90430879,15.6798385 9.29465615,15.289519 C9.68815148,14.9023472 10.3215216,14.9023472 10.7118689,15.296444 C11.0990683,15.6899113 11.0952908,16.3200885 10.7049434,16.7097785 C10.5116585,16.9030497 10.2547847,17 10.0016886,17 C9.74103725,17 9.4841635,16.9036792 9.2908786,16.7066308 L9.2908786,16.7066308 Z M5.2908786,10.7066308 C4.90053124,10.3131635 4.90430879,9.67983854 5.29465615,9.28951899 C5.68815148,8.90234717 6.32152155,8.90234717 6.71186891,9.29644401 C7.09906831,9.6899113 7.09529076,10.3200885 6.70494339,10.7097785 C6.51165849,10.9030497 6.25478474,11 6.00168855,11 C5.74103725,11 5.4841635,10.9036792 5.2908786,10.7066308 L5.2908786,10.7066308 Z M7.2908786,13.7066308 C6.90053124,13.3131635 6.90430879,12.6798385 7.29465615,12.289519 C7.68815148,11.9023472 8.32152155,11.9023472 8.71186891,12.296444 C9.09906831,12.6899113 9.09529076,13.3200885 8.70494339,13.7097785 C8.51165849,13.9030497 8.25478474,14 8.00168855,14 C7.74103725,14 7.4841635,13.9036792 7.2908786,13.7066308 L7.2908786,13.7066308 Z M2.2908786,7.70663079 C1.90053124,7.3131635 1.90430879,6.67983854 2.29465615,6.28951899 C2.68815148,5.90234717 3.32152155,5.90234717 3.71186891,6.29644401 C4.09906831,6.6899113 4.09529076,7.32008852 3.70494339,7.70977853 C3.51165849,7.90304966 3.25478474,8 3.00168855,8 C2.74103725,8 2.4841635,7.90367921 2.2908786,7.70663079 L2.2908786,7.70663079 Z" sketch:type="MSShapeGroup"></path></g></g></svg>