<?xml version="1.0" encoding="utf-8"?>
<!-- Generator: Adobe Illustrator 20.1.0, SVG Export Plug-In . SVG Version: 6.00 Build 0)  -->
<svg version="1.1" id="Layer_1" xmlns="http://www.w3.org/2000/svg" xmlns:xlink="http://www.w3.org/1999/xlink" x="0px" y="0px"
	 viewBox="0 0 512 512" style="enable-background:new 0 0 512 512;" xml:space="preserve">
<style type="text/css">
	.st0{fill:#16425B;}
	.st1{fill:#F4F4F4;}
</style>
<path class="st0" d="M246,16.1c-127.5,6-229,111.3-229,240.2c0,132.8,107.7,240.5,240.5,240.5c127.6,0,231.9-99.3,240-224.8"/>
<path class="st1" d="M241.9,0C181.2,3.4,121.4,28.2,75,74.6C-25,174.7-25,336.9,75,437c50,50,115.6,75,181.2,75s131.1-25,181.2-75
	c46.4-46.4,71.3-106.2,74.6-166.9L241.9,0z M457.4,245.6c-16.4-2.8-32.5-7.4-48-13.7c-29.1-11.8-55.3-29.2-77.7-51.6
	c-24.1-24.1-42.2-52.3-54-83.9c-5.1-13.7-8.9-27.7-11.3-41.9L457.4,245.6z M325.2,203.6c44.6,40.7,100.1,62.8,156.5,66.3l8.3,8.3
	c2.8,26-7,49.5-18.7,72.1c-13.4,25.9-28.2,50.8-49,71.6c-22.4,22.4-48.6,39.8-77.7,51.6c-28.2,11.4-57.9,17.2-88.4,17.2
	s-60.3-5.8-88.4-17.2c-29.1-11.8-55.3-29.2-77.7-51.6s-39.8-48.6-51.6-77.7c-11.4-28.1-17.2-57.9-17.2-88.4s5.8-60.2,17.2-88.4
	c11.8-29.1,29.2-55.3,51.6-77.7c20.8-20.8,44.9-37.3,71.5-49c22.9-10.1,47.1-16.3,72.1-18.7l8.3,8.3c2.9,45.9,18,91.2,45.5,130.5"/>
</svg>
