<?xml version="1.0" encoding="utf-8"?>
<!-- Generator: Adobe Illustrator 20.1.0, SVG Export Plug-In . SVG Version: 6.00 Build 0)  -->
<svg version="1.1" id="Layer_1" xmlns="http://www.w3.org/2000/svg" xmlns:xlink="http://www.w3.org/1999/xlink" x="0px" y="0px"
	 viewBox="0 0 512 512" style="enable-background:new 0 0 512 512;" xml:space="preserve">
<style type="text/css">
	.st0{fill:#F4F4F4;}
	.st1{fill:#16425B;}
	.st2{fill:none;}
	.st3{fill:#247BA0;}
	.st4{fill:#EF476F;}
</style>
<path id="WhiteCircle" class="st0" d="M256,0c-34.5,0-68.1,6.8-99.7,20.1C125.9,33,98.5,51.5,75,75c-23.5,23.5-42,50.9-54.9,81.4
	C6.8,187.9,0,221.5,0,256s6.8,68.1,20.1,99.7C33,386.1,51.5,413.5,75,437c23.5,23.5,50.9,42,81.4,54.9
	c31.6,13.4,65.1,20.1,99.7,20.1s68.1-6.8,99.7-20.1c30.5-12.9,57.9-31.4,81.4-54.9c23.5-23.5,42-50.9,54.9-81.4
	c13.4-31.6,20.1-65.1,20.1-99.7s-6.8-68.1-20.1-99.7C479,125.9,460.5,98.5,437,75c-23.5-23.5-50.9-42-81.4-54.9
	C324.1,6.8,290.5,0,256,0L256,0z"/>
<path id="blueInnerCircle" class="st1" d="M256,22.8c128.8,0,233.2,104.4,233.2,233.2S384.8,489.2,256,489.2S22.8,384.8,22.8,256
	S127.2,22.8,256,22.8"/>
<g>
	<path class="st2" d="M401.2,318.1c7.6,0,12.3-8.2,8.5-14.8l-88.8-153.9c-3.8-6.6-13.3-6.6-17.1,0l-67.4,116.8l29.9,51.9H401.2z"/>
	<path class="st2" d="M210.2,261l-41-71c-3-5.2-10.5-5.2-13.5,0L85.4,311.7c-3,5.2,0.8,11.7,6.8,11.7h82c0.1-0.3,0.3-0.6,0.5-0.9
		L210.2,261z"/>
	<path class="st2" d="M239.5,311.7l-14.7-25.4l-9.8,17c-3.8,6.6,0.9,14.8,8.5,14.8h16.6C240.8,316.1,240.7,313.8,239.5,311.7z"/>
	<path class="st3" d="M174.2,323.4h-82c-6,0-9.8-6.5-6.8-11.7L155.7,190c3-5.2,10.5-5.2,13.5,0l41,71l11.6-20.1L172,154.7
		c-4.2-7.4-14.9-7.4-19.1,0L53.5,326.9c-4.2,7.4,1.1,16.5,9.6,16.5h123.7C176.3,343.5,169.7,332.6,174.2,323.4z"/>
	<path class="st4" d="M450.1,322.6L324.4,104.9c-5.4-9.3-18.8-9.3-24.2,0l-78.5,136L210.2,261l-35.6,61.6c-0.2,0.3-0.3,0.6-0.5,0.9
		c-4.5,9.1,2.1,20.1,12.5,20.1h75.2H438C448.8,343.5,455.5,331.8,450.1,322.6z M401.2,318.1H266.4h-26.2h-16.6
		c-7.6,0-12.3-8.2-8.5-14.8l9.8-17l11.6-20.1l67.4-116.8c3.8-6.6,13.3-6.6,17.1,0l88.8,153.9C413.5,309.9,408.8,318.1,401.2,318.1z"
		/>
</g>
</svg>
