<?xml version="1.0" encoding="utf-8"?>
<!-- Generator: Adobe Illustrator 20.1.0, SVG Export Plug-In . SVG Version: 6.00 Build 0)  -->
<svg version="1.1" id="Layer_1" xmlns="http://www.w3.org/2000/svg" xmlns:xlink="http://www.w3.org/1999/xlink" x="0px" y="0px"
	 viewBox="0 0 512 512" style="enable-background:new 0 0 512 512;" xml:space="preserve">
<style type="text/css">
	.st0{fill:#F4F4F4;}
	.st1{fill:#16425B;}
	.st2{fill:#EF476F;}
</style>
<path id="WhiteCircle" class="st0" d="M256,0c-34.5,0-68.1,6.8-99.7,20.1C125.9,33,98.5,51.5,75,75c-23.5,23.5-42,50.9-54.9,81.4
	C6.8,187.9,0,221.5,0,256s6.8,68.1,20.1,99.7C33,386.1,51.5,413.5,75,437c23.5,23.5,50.9,42,81.4,54.9
	c31.6,13.4,65.1,20.1,99.7,20.1s68.1-6.8,99.7-20.1c30.5-12.9,57.9-31.4,81.4-54.9c23.5-23.5,42-50.9,54.9-81.4
	c13.4-31.6,20.1-65.1,20.1-99.7s-6.8-68.1-20.1-99.7C479,125.9,460.5,98.5,437,75c-23.5-23.5-50.9-42-81.4-54.9
	C324.1,6.8,290.5,0,256,0L256,0z"/>
<path id="blueInnerCircle" class="st1" d="M256,22.8c128.8,0,233.2,104.4,233.2,233.2S384.8,489.2,256,489.2S22.8,384.8,22.8,256
	S127.2,22.8,256,22.8"/>
<path class="st0" d="M425.8,168.2c-5-2.5-11-2-15.5,1.4l-55.4,41.5H345v-14.8c0-16.4-13.3-29.7-29.7-29.7h-29.7V137
	c0-16.4-13.3-29.7-29.7-29.7H152.2c-12.9,0-22,16.5-7.2,29.5c0.1,0.1,0.2,0.1,0.3,0.1H256c0,0,0,0,0,0v29.6H107.7
	c-16.4,0-29.7,13.3-29.7,29.7v148.3c0,16.4,13.3,29.7,29.7,29.7h207.6c16.4,0,29.7-13.3,29.7-29.7v-14.8h9.9l55.4,41.5
	c2.6,2,5.8,3,8.9,3c2.3,0,4.5-0.5,6.6-1.6c5-2.5,8.2-7.7,8.2-13.3v-178C434,175.9,430.8,170.7,425.8,168.2z M315.3,344.6H122.5
	c-8.2,0-14.8-6.6-14.8-14.8V196.3h192.8c8.2,0,14.8,6.7,14.8,14.8V226v103.8V344.6z M404.3,329.8l-35.6-26.7c-2.6-1.9-5.7-3-8.9-3
	H345v-59.3h14.8c3.2,0,6.3-1,8.9-3l35.6-26.7V329.8z"/>
<path class="st2" d="M263.6,257.8l-74.2-44.5c-4.6-2.8-10.3-2.8-14.9-0.2c-4.6,2.6-7.5,7.6-7.5,12.9l0,91.9c0,0.1,0,0.2,0.1,0.3
	c2.5,7.8,8.6,11.6,14.8,11.6c2.6,0,5.3-0.7,7.6-2.1l74.2-44.5c4.5-2.7,7.2-7.5,7.2-12.7C270.8,265.3,268.1,260.4,263.6,257.8z
	 M196.7,288.8v-36.6l30.5,18.3L196.7,288.8z"/>
</svg>
