<svg xmlns="http://www.w3.org/2000/svg" viewBox="0 0 24 24" enable-background="new 0 0 24 24" x="0px" y="0px"><g><path d="M15 21h-12c-1.654 0-3-1.346-3-3v-8c0-1.654 1.346-3 3-3h12c1.654 0 3 1.346 3 3v8c0 1.654-1.346 3-3 3zm-12-12c-.551 0-1 .449-1 1v8c0 .552.449 1 1 1h12c.552 0 1-.448 1-1v-8c0-.551-.448-1-1-1h-12zM13 9c-.552 0-1-.448-1-1v-1.997c0-.553-.45-1.003-1.003-1.003h-5.997c-.552 0-1-.448-1-1s.448-1 1-1h5.997c1.656 0 3.003 1.347 3.003 3.003v1.997c0 .552-.447 1-1 1zM23 21c-.212 0-.424-.067-.6-.2l-3.733-2.8h-1.667c-.553 0-1-.447-1-1v-6c0-.552.447-1 1-1h1.667l3.733-2.8c.303-.227.708-.264 1.047-.095.339.17.553.516.553.895v12c0 .379-.214.725-.553.895-.141.07-.295.105-.447.105zm-5-5h1c.217 0 .427.07.6.2l2.4 1.8v-8l-2.4 1.8c-.173.13-.383.2-.6.2h-1v4zM7 18c-.17 0-.34-.043-.493-.13-.313-.178-.507-.51-.507-.87v-6c0-.36.194-.693.507-.87.313-.178.698-.173 1.007.013l5 3c.302.18.486.505.486.857s-.184.677-.485.857l-5 3c-.159.095-.337.143-.515.143zm1-5.234v2.467l2.056-1.233-2.056-1.234z"></path></g></svg>